<svg aria-hidden="true" style="position:absolute;width:0;height:0;overflow:hidden" xmlns="http://www.w3.org/2000/svg"><defs><symbol id="icon-twitter" viewBox="0 0 42 32"><path d="M40.696 4.544A18.069 18.069 0 0 1 36 5.732c1.689-.931 2.979-2.395 3.585-4.159a17.105 17.105 0 0 1-5.168 1.821c-1.496-1.47-3.627-2.381-5.953-2.381-4.512 0-8.144 3.381-8.144 7.527 0 .596.055 1.17.189 1.716-6.775-.305-12.771-3.303-16.798-7.871-.703 1.126-1.116 2.416-1.116 3.804 0 2.606 1.453 4.916 3.62 6.254a8.566 8.566 0 0 1-3.682-.927v.083c0 3.657 2.825 6.694 6.529 7.394a8.743 8.743 0 0 1-2.137.248c-.522 0-1.048-.028-1.543-.128 1.056 2.98 4.052 5.171 7.615 5.242-2.773 2.003-6.293 3.209-10.105 3.209-.668 0-1.309-.028-1.95-.103 3.61 2.15 7.888 3.377 12.502 3.377 14.997 0 23.196-11.47 23.196-21.413 0-.333-.012-.654-.03-.973a15.644 15.644 0 0 0 4.085-3.907z"/></symbol><symbol id="icon-facebook" viewBox="0 0 17 32"><path d="M14.91 6.409c-.827-.242-1.778-.403-2.646-.403-1.075 0-3.391.684-3.391 2.013V11.2h5.5v5.355h-5.5v14.776H3.332V16.555H.603V11.2h2.729V8.502c0-4.067 1.902-7.449 6.492-7.449 1.571 0 4.383.081 5.913.604l-.827 4.751z"/></symbol><symbol id="icon-google" viewBox="0 0 105 32"><path fill="#080809" style="fill:var(--color1, #080809)" d="M8.485.369h87.758a8.485 8.485 0 0 1 8.485 8.485v14.661A8.485 8.485 0 0 1 96.243 32H8.485A8.485 8.485 0 0 1 0 23.515V8.854A8.485 8.485 0 0 1 8.485.369z"/><path fill="#2196f3" style="fill:var(--color2, #2196f3)" d="m27.902 15.734-9.83 8.74c-.46-.29-.734-.774-.729-1.288V8.283c-.005-.515.268-.998.729-1.288l9.83 8.74z"/><path fill="#4caf50" style="fill:var(--color3, #4caf50)" d="m31.342 12.682-3.44 3.053-9.83-8.74c.037-.027.076-.051.116-.074.52-.291 1.169-.3 1.698-.025l11.457 5.786z"/><path fill="#f0bb1f" style="fill:var(--color4, #f0bb1f)" d="M35.51 15.735c.006.581-.336 1.118-.889 1.395l-3.28 1.658-3.44-3.053 3.44-3.053 3.28 1.658c.553.277.895.814.889 1.395z"/><path fill="#f15a2b" style="fill:var(--color5, #f15a2b)" d="m31.342 18.787-11.457 5.786a1.827 1.827 0 0 1-1.698-.025 1.42 1.42 0 0 1-.116-.074l9.83-8.74 3.44 3.053z"/><path fill="#fff" style="fill:var(--color6, #fff)" d="M47.004 11.106h-2.748v1.012h1.464c-.196.484-.673.781-1.402.781-1.065 0-1.723-.629-1.723-1.489 0-.889.689-1.518 1.613-1.518.619 0 1.112.26 1.339.593l1.065-.564c-.462-.68-1.347-1.157-2.396-1.157-1.613 0-2.874 1.171-2.874 2.639 0 1.453 1.237 2.624 2.96 2.624 1.535 0 2.701-.94 2.701-2.487v-.434zM48.572 12.812v-.896h1.957v-1.099h-1.957v-.839h2.153V8.865h-3.406v5.061h3.445v-1.113h-2.193z"/><path fill="#fff" style="fill:var(--color6, #fff)" d="M54.759 8.865h-4.071v1.113h1.409v3.947h1.252V9.978h1.409V8.865zM56.482 8.865v5.061h1.253V8.865h-1.253zM61.966 8.865h-4.072v1.113h1.409v3.947h1.253V9.978h1.409V8.865zM66.303 14.027c1.574 0 2.85-1.142 2.85-2.632s-1.276-2.632-2.85-2.632-2.85 1.142-2.85 2.632 1.276 2.632 2.85 2.632zm0-1.128c-.893 0-1.597-.6-1.597-1.504s.704-1.504 1.597-1.504 1.598.6 1.598 1.504-.704 1.504-1.598 1.504zM72.522 8.865v2.747l-2.114-2.747h-.94v5.061h1.253v-2.747l2.114 2.747h.94V8.865h-1.253zM47.004 19.702v.195c0 .631-.243 1.164-.728 1.598-.485.429-1.125.643-1.918.643-.835 0-1.524-.251-2.067-.752-.543-.506-.814-1.125-.814-1.858s.269-1.35.806-1.851c.538-.506 1.219-.759 2.044-.759.501 0 .961.111 1.378.333.423.222.749.518.979.889l-.368.202a1.993 1.993 0 0 0-.814-.766 2.418 2.418 0 0 0-1.175-.289c-.71 0-1.295.217-1.754.651-.454.429-.681.959-.681 1.591s.23 1.164.689 1.598c.459.429 1.052.643 1.777.643.642 0 1.161-.162 1.558-.484s.619-.73.666-1.222h-2.326v-.361h2.748zM52.562 21.379c-.548.506-1.216.759-2.004.759s-1.456-.253-2.005-.759c-.548-.511-.822-1.128-.822-1.851s.274-1.338.822-1.844c.548-.511 1.216-.766 2.005-.766s1.456.255 2.004.766c.548.506.822 1.121.822 1.844s-.274 1.34-.822 1.851zm-3.719-.26c.47.434 1.041.651 1.715.651s1.242-.217 1.707-.651c.47-.439.705-.969.705-1.591s-.235-1.15-.705-1.583c-.465-.439-1.033-.658-1.707-.658s-1.245.219-1.715.658c-.465.434-.697.962-.697 1.583s.232 1.152.697 1.591zM58.955 21.379c-.548.506-1.216.759-2.005.759s-1.456-.253-2.004-.759c-.548-.511-.822-1.128-.822-1.851s.274-1.338.822-1.844c.548-.511 1.216-.766 2.004-.766s1.456.255 2.005.766c.548.506.822 1.121.822 1.844s-.274 1.34-.822 1.851zm-3.72-.26c.47.434 1.041.651 1.714.651s1.243-.217 1.707-.651c.47-.439.705-.969.705-1.591s-.235-1.15-.705-1.583c-.465-.439-1.034-.658-1.707-.658s-1.245.219-1.714.658c-.465.434-.697.962-.697 1.583s.232 1.152.697 1.591zM66.044 19.702v.195c0 .631-.243 1.164-.728 1.598-.486.429-1.125.643-1.919.643-.835 0-1.524-.251-2.067-.752-.543-.506-.814-1.125-.814-1.858s.269-1.35.806-1.851c.538-.506 1.219-.759 2.044-.759.501 0 .96.111 1.378.333.423.222.749.518.978.889l-.368.202a1.987 1.987 0 0 0-.814-.766 2.42 2.42 0 0 0-1.175-.289c-.71 0-1.295.217-1.754.651-.454.429-.681.959-.681 1.591s.23 1.164.689 1.598c.459.429 1.052.643 1.777.643.642 0 1.161-.162 1.558-.484s.619-.73.665-1.222h-2.325v-.361h2.749zM67.499 21.698h2.584v.361h-2.999v-5.061h.415v4.699zM71.361 21.698h2.74v.361h-3.155v-5.061h3.116v.361h-2.701v1.967h2.506v.361h-2.506v2.01zM79.072 16.998c.491 0 .898.149 1.221.448s.486.672.486 1.121c0 .448-.162.822-.486 1.121-.323.294-.731.441-1.221.441h-1.449v1.93h-.415v-5.061h1.864zm0 2.769c.376 0 .684-.113.924-.34.245-.227.368-.513.368-.86 0-.352-.123-.641-.368-.868-.24-.227-.548-.34-.924-.34h-1.449v2.408h1.449zM82.219 21.698h2.584v.361h-2.999v-5.061h.415v4.699zM89.506 22.059l-.532-1.287h-2.749l-.532 1.287h-.438l2.13-5.061h.438l2.122 5.061h-.438zm-3.124-1.648h2.443l-1.221-2.943-1.222 2.943zM93.844 16.998l-1.997 2.979v2.082h-.415v-2.082l-1.997-2.979h.47l1.738 2.61 1.73-2.61h.47z"/></symbol><symbol id="icon-instagram" viewBox="0 0 35 32"><path fill="#fff" style="fill:var(--color6, #fff)" d="M29.954.102H5.595C2.813.102.548 2.193.548 4.762v22.492c0 2.57 2.264 4.66 5.047 4.66h24.359c2.783 0 5.047-2.09 5.047-4.66V4.762c0-2.569-2.264-4.66-5.047-4.66zm3.028 27.151c0 1.542-1.359 2.796-3.028 2.796H5.595c-1.669 0-3.028-1.254-3.028-2.796V4.761c0-1.541 1.359-2.796 3.028-2.796h24.359c1.669 0 3.028 1.254 3.028 2.796v22.492z"/><path fill="#fff" style="fill:var(--color6, #fff)" d="M28.877 3.892c-1.113 0-2.019.836-2.019 1.864s.906 1.864 2.019 1.864 2.019-.836 2.019-1.864-.906-1.864-2.019-1.864zM17.774 7.62c-5.009 0-9.084 3.763-9.084 8.388s4.075 8.388 9.084 8.388c5.009 0 9.084-3.763 9.084-8.388S22.783 7.62 17.774 7.62zm0 14.911c-3.896 0-7.065-2.926-7.065-6.524s3.169-6.524 7.065-6.524c3.896 0 7.066 2.926 7.066 6.524s-3.169 6.524-7.066 6.524z"/></symbol><symbol id="icon-apple" viewBox="0 0 98 32"><path fill="#080809" style="fill:var(--color1, #080809)" d="M8.548.369h80.906a8.485 8.485 0 0 1 8.485 8.485v14.661A8.485 8.485 0 0 1 89.454 32H8.548a8.485 8.485 0 0 1-8.485-8.485V8.854A8.485 8.485 0 0 1 8.548.369z"/><path fill="#fff" style="fill:var(--color6, #fff)" d="M21.39 22.059c-2.331-.012-4.259-4.405-4.259-6.643 0-3.655 2.969-4.455 4.113-4.455.516 0 1.066.187 1.552.352.34.115.691.235.886.235.117 0 .392-.101.636-.19.519-.191 1.164-.428 1.916-.428h.004c.561 0 2.264.114 3.287 1.533l.24.333-.345.24c-.493.343-1.392.97-1.392 2.21 0 1.469 1.018 2.035 1.508 2.306.216.12.439.244.439.514 0 .177-1.527 3.97-3.744 3.97-.543 0-.926-.151-1.264-.283-.342-.134-.638-.25-1.125-.25-.247 0-.56.108-.891.223-.452.156-.965.333-1.546.333h-.015zM26.47 7.599c.058 1.923-1.431 3.256-2.919 3.173-.245-1.534 1.487-3.173 2.919-3.173zM38.264 12.118h1.028l-1.398-3.796h-1.198l-1.398 3.796h1.028l.206-.596h1.527l.206.596zm-1.45-1.41.482-1.394.482 1.394h-.963zM41.372 9.407l-.611 1.719-.611-1.719h-.975l1.086 2.711h.998l1.086-2.711h-.975zM44.687 9.407v.255c-.194-.206-.482-.331-.875-.331-.769 0-1.404.624-1.404 1.431s.634 1.431 1.404 1.431c.393 0 .681-.125.875-.331v.255h.881V9.406h-.881zm-.699 2.017c-.405 0-.699-.255-.699-.662s.294-.662.699-.662c.405 0 .699.255.699.662s-.294.662-.699.662zM46.214 12.118h.881V8.16h-.881v3.958zM48.18 9.168c.288 0 .529-.222.529-.488s-.241-.488-.529-.488c-.288 0-.529.222-.529.488s.241.488.529.488zm-.44 2.95h.881V9.407h-.881v2.711zM51.021 9.331c-.394 0-.681.125-.875.331V8.323h-.881v3.796h.881v-.255c.194.206.481.331.875.331.769 0 1.404-.624 1.404-1.431s-.634-1.431-1.404-1.431zm-.176 2.093c-.405 0-.699-.255-.699-.662s.294-.662.699-.662c.405 0 .699.255.699.662s-.294.662-.699.662zM52.924 12.118h.881V8.16h-.881v3.958zM55.236 11.088h2.085c.023-.103.035-.211.035-.325 0-.819-.634-1.431-1.492-1.431-.928 0-1.562.624-1.562 1.431s.623 1.431 1.627 1.431c.558 0 .992-.19 1.281-.559l-.705-.374c-.117.119-.323.206-.563.206-.323 0-.593-.098-.705-.38zm-.017-.608c.082-.277.305-.428.64-.428.264 0 .529.114.623.428h-1.263zM60.734 12.194c.864 0 1.556-.624 1.556-1.431s-.693-1.431-1.556-1.431c-.863 0-1.556.624-1.556 1.431s.693 1.431 1.556 1.431zm0-.792c-.382 0-.675-.255-.675-.64s.294-.64.675-.64c.382 0 .675.255.675.64s-.294.64-.675.64zM64.509 9.331c-.387 0-.681.13-.84.331v-.255h-.881v2.711h.881v-1.48c0-.385.224-.559.546-.559.282 0 .511.157.511.493v1.545h.881v-1.665c0-.732-.505-1.122-1.098-1.122zM69.401 10.188v-.781h-.605v-.759l-.881.244v.515h-.47v.781h.47v.96c0 .759.335 1.079 1.486.971v-.737c-.388.022-.605 0-.605-.233v-.96h.605zM71.62 9.331c-.387 0-.681.13-.84.331V8.323h-.88v3.796h.88v-1.48c0-.385.224-.559.546-.559.282 0 .511.157.511.493v1.545h.88v-1.665c0-.732-.505-1.122-1.098-1.122zM74.11 11.088h2.085c.023-.103.035-.211.035-.325 0-.819-.635-1.431-1.492-1.431-.928 0-1.562.624-1.562 1.431s.623 1.431 1.627 1.431c.558 0 .993-.19 1.281-.559l-.705-.374c-.117.119-.323.206-.564.206-.323 0-.593-.098-.704-.38zm-.017-.608c.082-.277.305-.428.64-.428.264 0 .528.114.623.428h-1.263zM40.242 22.059h1.713l-2.329-6.326h-1.997L35.3 22.059h1.713l.343-.994h2.545l.343.994zm-2.418-2.35.803-2.323.803 2.323h-1.605zM45.416 17.414c-.656 0-1.135.208-1.458.551v-.425H42.49v6.326h1.468v-2.232c.323.343.803.551 1.458.551 1.282 0 2.339-1.039 2.339-2.386s-1.057-2.386-2.339-2.386zm-.294 3.488c-.675 0-1.165-.425-1.165-1.103s.489-1.103 1.165-1.103 1.165.425 1.165 1.103c0 .678-.489 1.103-1.165 1.103zM51.514 17.414c-.655 0-1.136.208-1.458.551v-.425h-1.468v6.326h1.468v-2.232c.323.343.803.551 1.458.551 1.282 0 2.339-1.039 2.339-2.386s-1.057-2.386-2.339-2.386zm-.293 3.488c-.675 0-1.165-.425-1.165-1.103s.49-1.103 1.165-1.103 1.165.425 1.165 1.103-.49 1.103-1.165 1.103zM54.686 22.059h1.468v-6.597h-1.468v6.597zM58.54 20.342h3.474a2.44 2.44 0 0 0 .059-.542c0-1.365-1.057-2.386-2.486-2.386-1.547 0-2.604 1.039-2.604 2.386s1.038 2.386 2.711 2.386c.929 0 1.654-.316 2.133-.931l-1.174-.624c-.196.199-.538.343-.94.343-.538 0-.989-.163-1.174-.633zm-.029-1.012c.137-.461.509-.714 1.067-.714.441 0 .881.19 1.038.714h-2.104zM67.8 22.186c1.487 0 2.545-.723 2.545-1.943 0-1.337-1.165-1.672-2.203-1.961-1.067-.298-1.233-.497-1.233-.786 0-.253.245-.479.734-.479.626 0 .949.28 1.184.732l1.321-.714c-.499-.931-1.38-1.428-2.506-1.428-1.184 0-2.3.705-2.3 1.925 0 1.211.998 1.663 2.016 1.925 1.027.262 1.419.416 1.419.804 0 .244-.186.515-.93.515-.773 0-1.194-.352-1.439-.877l-1.35.723c.382.931 1.301 1.563 2.74 1.563zM73.803 18.842v-1.301h-1.008v-1.265l-1.468.407v.859h-.783v1.301h.783v1.6c0 1.265.558 1.798 2.476 1.618v-1.229c-.646.036-1.008 0-1.008-.389v-1.6h1.008zM76.887 22.186c1.439 0 2.594-1.039 2.594-2.386s-1.155-2.386-2.594-2.386c-1.439 0-2.594 1.039-2.594 2.386s1.155 2.386 2.594 2.386zm0-1.32c-.636 0-1.125-.425-1.125-1.066s.489-1.066 1.125-1.066 1.126.425 1.126 1.066-.49 1.066-1.126 1.066zM81.779 18.345v-.804h-1.468v4.519h1.468v-2.042c0-.895.862-1.121 1.468-1.03v-1.536c-.616 0-1.272.289-1.468.895zM85.102 20.342h3.475a2.44 2.44 0 0 0 .059-.542c0-1.365-1.057-2.386-2.486-2.386-1.546 0-2.604 1.039-2.604 2.386s1.038 2.386 2.711 2.386c.93 0 1.654-.316 2.134-.931l-1.174-.624c-.196.199-.539.343-.94.343-.539 0-.989-.163-1.175-.633zm-.029-1.012c.137-.461.509-.714 1.067-.714.44 0 .881.19 1.038.714h-2.104z"/></symbol></defs></svg>